<?xml version="1.0" encoding="UTF-8" standalone="no"?>
<!-- Created with Inkscape (http://www.inkscape.org/) -->
<svg id="svg3722" xmlns:rdf="http://www.w3.org/1999/02/22-rdf-syntax-ns#" xmlns="http://www.w3.org/2000/svg" height="25" viewBox="0 0 27.5 25" width="27.5" version="1.1" xmlns:cc="http://creativecommons.org/ns#" xmlns:dc="http://purl.org/dc/elements/1.1/">
 <metadata id="metadata3728">
  <rdf:RDF>
   <cc:Work rdf:about="">
    <dc:format>image/svg+xml</dc:format>
    <dc:type rdf:resource="http://purl.org/dc/dcmitype/StillImage"/>
    <dc:title/>
   </cc:Work>
  </rdf:RDF>
 </metadata>
 <g id="g3732" transform="translate(.05 .05)">
  <path id="path3746" fill="#fdfdfd" d="m8.75 24.072c-3.7812-0.256-7.359-0.945-7.9506-1.532-0.59158-0.586-0.67512-5.054-0.18564-9.928l0.88994-8.862h4.0951c2.2523 0 4.7952-0.8438 5.6512-1.875 1.7173-2.0692 5-2.5397 5-0.71666 0 0.63709-0.98438 1.3808-2.1875 1.6528-1.2031 0.27194 0.17346 0.55877 3.0591 0.6374 9.184 0.2503 10.444 1.6436 9.625 10.646-1.113 12.225 0.662 11.241-17.997 9.978zm11.875-15.322c-1.375-0.5909-5.313-1.0473-8.75-1.0142-5.3759 0.0516-5.7255 0.1934-2.5 1.0142 5.4844 1.3955 14.498 1.3955 11.25 0z"/>
  <path id="path3744" fill="#fcfcfc" d="m10.418 24.104c-4.4085-0.267-8.3043-1.188-9.1037-2.152-0.94567-1.139-1.0809-4.252-0.41836-9.63 0.93386-7.5804 1.1469-7.9661 4.6168-8.3618 2.0007-0.2282 4.8743-1.2253 6.3863-2.2157 2.3961-1.57 2.9423-1.5672 4.2612 0.021996 0.83204 1.0025 3.3021 2.2109 5.4889 2.6852 2.1869 0.47431 4.2574 1.2994 4.6011 1.8336 0.34375 0.53418 0.34375 4.8229 0 9.5305-0.71165 9.7459 0.21 9.2634-15.832 8.2887zm5.52-4.966c-1.2031-0.31441-3.1719-0.31441-4.375 0s-0.21875 0.57165 2.1875 0.57165 3.3906-0.25724 2.1875-0.57165zm0-2.5c-1.2031-0.31441-3.1719-0.31441-4.375 0s-0.21875 0.57165 2.1875 0.57165 3.3906-0.25724 2.1875-0.57165zm0-2.5c-1.2031-0.31441-3.1719-0.31441-4.375 0s-0.21875 0.57165 2.1875 0.57165 3.3906-0.25724 2.1875-0.57165zm6.562-5.388c0-0.7298-3.771-1.1982-9.062-1.1254-6.4449 0.0886-8.1602 0.4137-5.938 1.1254 4.5555 1.4589 15 1.4589 15 0zm-6.25-5.5512c0-1.3194-2.399-1.8737-3.112-0.7192-0.432 0.6987 0.091 1.2704 1.163 1.2704s1.949-0.2481 1.949-0.5512z"/>
  <path id="path3742" fill="#fafafa" d="m11.672 24.074c-4.9846-0.239-9.4932-1.098-10.172-1.939-0.70466-0.874-0.88249-4.934-0.4216-9.635l0.7966-8.125 4.375-0.4102c2.4062-0.2256 5.268-1.2146 6.36-2.1976 1.735-1.563 2.269-1.4723 4.256 0.7227 1.26 1.393 3.854 2.5101 5.828 2.5101h3.556v8.5c0 8.1882-1.3864 11.805-4.3125 11.252-0.72188-0.1366-5.3414-0.4415-10.266-0.67755zm6.1577-4.954c-1.5374-0.2967-4.3499-0.30438-6.25-0.01706s-0.64219 0.53007 2.7953 0.53946c3.4375 0.0094 4.9921-0.22569 3.4547-0.5224zm0-2.5c-1.5374-0.2967-4.3499-0.30438-6.25-0.01706s-0.64219 0.53007 2.7953 0.53946c3.4375 0.0094 4.9921-0.22569 3.4547-0.5224zm0-2.5c-1.5374-0.2967-4.3499-0.30438-6.25-0.01706s-0.64219 0.53007 2.7953 0.53946c3.4375 0.0094 4.9921-0.22569 3.4547-0.5224zm4.67-5.37c0-0.7202-3.841-1.2419-9.062-1.2309-6.3131 0.0134-8.4941 0.3869-7.188 1.2309 2.4811 1.6034 16.25 1.6034 16.25 0zm-6.25-5.5512c0-1.3194-2.399-1.8737-3.112-0.7192-0.432 0.6987 0.091 1.2704 1.163 1.2704s1.949-0.2481 1.949-0.5512z"/>
  <path id="path3740" fill="#f9f9f9" d="m2.7508 22.681c-1.1404-0.7234-1.5127-3.603-1.25-9.6684l0.3742-8.638 10.432 0.2246c5.7376 0.12353 11.222 0.52775 12.188 0.89827 1.21 0.4644 1.755 2.7896 1.755 7.4861 0 10.725-0.048 10.769-11.696 10.747-5.5986-0.011-10.91-0.483-11.803-1.05zm15.687-3.576c-1.8906-0.28641-4.9844-0.28641-6.875 0-1.8906 0.2864-0.34375 0.52074 3.4375 0.52074s5.3281-0.23433 3.4375-0.52074zm0-2.5c-1.8906-0.28641-4.9844-0.28641-6.875 0-1.8906 0.2864-0.34375 0.52074 3.4375 0.52074s5.3281-0.23433 3.4375-0.52074zm1.2724-2.4978c-1.8783-0.28522-5.2533-0.29096-7.5-0.01276-2.2468 0.278-0.71 0.512 3.415 0.519s5.9632-0.2206 4.0849-0.50582zm2.79-5.357c0-0.7143-3.75-1.25-8.75-1.25s-8.75 0.5357-8.75 1.25 3.75 1.25 8.75 1.25 8.75-0.53571 8.75-1.25z"/>
  <path id="path3738" fill="#f8f8f8" d="m4.0625 22.868c-2.5575-0.493-2.8108-1.242-2.7934-8.267 0.0275-11.091 0.1027-11.148 13.217-9.9735 11.135 0.9971 11.139 0.9988 11.558 4.674 0.23 2.0225 0.055 6.1005-0.39 9.0625l-0.807 5.386-8.986-0.17c-4.942-0.094-10.252-0.414-11.798-0.712zm17.888-6.0527c0.15649-2.9295-0.1458-3.0564-6.8307-2.8687l-6.994 0.197 6.25 0.857 6.25 0.85724-6.25 0.39276-6.25 0.39276 6.25 0.85724 6.25 0.85724-6.25 0.39276-6.25 0.39276 6.25 0.75669c7.3433 0.88906 7.3634 0.88089 7.5752-3.0843zm-15 0.12c-0.248-4.643-1.9502-5.423-1.9502-0.893 0 2.177 0.4756 3.958 1.057 3.958 0.58133 0 0.98328-1.3793 0.89323-3.0651zm15.55-7.56c0-1.4011-1.501-1.8793-5.938-1.8921-3.265-0.0094-7.2026-0.3562-8.7495-0.7708-2.0418-0.5472-2.8125-0.2163-2.8125 1.2075 0 1.525 1.7375 2.0598 7.8125 2.4049 4.2969 0.24409 8.2344 0.55218 8.75 0.68465 0.516 0.133 0.938-0.603 0.938-1.634z"/>
  <path id="path3736" fill="#f7f7f7" d="m5.9375 22.839-4.6875-0.49 0.0171-6.487c0.0319-12.147-0.0932-12.032 12.293-11.256 5.9483 0.37278 11.307 1.134 11.908 1.6916 0.60127 0.55763 0.69712 4.7125 0.21301 9.2332l-0.88 8.219-7.088-0.21c-3.898-0.116-9.1974-0.431-11.776-0.701zm16.334-5.748c0.386-3.269 0.244-3.341-6.563-3.341-6.1247 0-6.958 0.299-6.958 2.5 0 1.375-0.4845 2.5-1.0767 2.5-0.59216 0-0.80784-1.4062-0.47928-3.125 0.3488-1.824 0.0165-3.125-0.7983-3.125-0.7676 0-1.3957 1.659-1.3957 3.688 0 3.6051 0.16085 3.6974 7.1875 4.1262 9.6483 0.58874 9.6312 0.5942 10.083-3.2227zm-10.068 0.77482c1.5549-0.29899 3.8049-0.28764 5 0.02523 1.1951 0.31286-0.07707 0.5575-2.8271 0.54362s-3.7278-0.26986-2.1729-0.56885zm0-2.5c1.5549-0.29899 3.8049-0.28764 5 0.02523 1.1951 0.31286-0.07707 0.5575-2.8271 0.54362-2.75-0.01387-3.7278-0.26986-2.1729-0.56885zm10.297-5.991c0-1.1371-1.161-1.875-2.951-1.875-1.622 0-5.56-0.3577-8.75-0.7949-4.7952-0.6573-5.799-0.4518-5.799 1.1876 0 1.5279 1.6483 2.086 7.1875 2.4335 3.9531 0.24806 7.8906 0.55738 8.75 0.68738 0.859 0.13 1.562-0.608 1.562-1.639z"/>
  <path id="path3734" fill="#f6f6f6" d="m7.1875 22.831-5.9375-0.468v-5.4003c0-2.97 0.3309-7.0549 0.7353-9.0769l0.7353-3.6764 10.827 0.5314c5.955 0.2922 11.3 0.9713 11.879 1.5092 0.578 0.5378 0.653 4.6957 0.166 9.2387l-0.884 8.261-5.792-0.225c-3.186-0.124-8.464-0.436-11.73-0.694zm15.312-5.331c0-3.5286-0.28914-3.75-4.8978-3.75-2.6938 0-5.7875-0.34143-6.875-0.75874-1.3444-0.51591-2.0236-0.01585-2.1222 1.5625-0.1308 2.094-0.2008 2.107-0.7167 0.134-0.8841-3.384-2.5457-2.589-3.1465 1.504-0.53275 3.6299-0.4345 3.7001 5.7956 4.1438 3.4857 0.24821 7.6032 0.55535 9.1501 0.68252 2.343 0.193 2.812-0.394 2.812-3.518zm-10.312 0.42215c0.85938-0.34676 2.2656-0.34676 3.125 0 0.85938 0.34677 0.15625 0.63048-1.5625 0.63048s-2.4219-0.28372-1.5625-0.63048zm0-2.5c0.85938-0.34676 2.2656-0.34676 3.125 0 0.85938 0.34677 0.15625 0.63048-1.5625 0.63048s-2.4219-0.28372-1.5625-0.63048zm10.988-5.5052c1.231-1.9909 0.684-2.1768-9.134-3.1034-7.7258-0.729-9.042-0.5692-9.042 1.0982 0 1.429 1.5896 2.0768 5.9375 2.4196 3.2656 0.2575 7.1699 0.56957 8.6762 0.69349s3.1095-0.37461 3.5627-1.1079z"/>
 </g>
</svg>
