<?xml version="1.0" encoding="UTF-8" standalone="no"?>
<!-- Created with Inkscape (http://www.inkscape.org/) -->
<svg id="svg3826" xmlns:rdf="http://www.w3.org/1999/02/22-rdf-syntax-ns#" xmlns="http://www.w3.org/2000/svg" height="30" viewBox="0 0 23.75 30" width="23.75" version="1.1" xmlns:cc="http://creativecommons.org/ns#" xmlns:dc="http://purl.org/dc/elements/1.1/">
 <metadata id="metadata3832">
  <rdf:RDF>
   <cc:Work rdf:about="">
    <dc:format>image/svg+xml</dc:format>
    <dc:type rdf:resource="http://purl.org/dc/dcmitype/StillImage"/>
    <dc:title/>
   </cc:Work>
  </rdf:RDF>
 </metadata>
 <g id="g3836" transform="translate(-.06 -.06)">
  <path id="path3850" fill="#fefefe" d="m1.9736 26.823c-0.99214-3.953-1.0374-3.883 3.182-4.942 2.8155-0.707 3.3942-0.349 4.1208 2.546 0.9926 3.953 1.0376 3.883-3.182 4.942-2.8155 0.707-3.3942 0.349-4.1208-2.546zm13.831-5.21c-1.8598-0.47869-2.1673-1.3622-1.5495-4.4514 0.99389-4.9695 1.1118-5.054 5.6554-4.056 3.9474 0.867 4.3503 1.7359 3.0515 6.5821-0.7331 2.7356-2.3352 3.1665-7.1574 1.9253zm-12.475-2.495c-1.7935-0.463-2.1127-1.318-1.4609-3.915 1.0702-4.264 1.0048-4.2202 4.8582-3.2531 3.5389 0.88821 3.6101 1.0382 2.4846 5.2378-0.75083 2.8017-1.5233 3.0552-5.882 1.9302zm-2.5452-13.005c-0.94164-4.7082-1.1888-4.3504 3.7338-5.4038 3.6231-0.77541 3.9496-0.55448 4.6962 3.1786 0.942 4.7082 1.189 4.3504-3.7338 5.4038-3.6231 0.7758-3.9496 0.5545-4.6962-3.1786zm12.5 0c-0.94164-4.7082-1.1889-4.3504 3.7338-5.4039 3.6232-0.77537 3.9496-0.55443 4.6962 3.1786 0.94164 4.7082 1.1889 4.3504-3.7338 5.4039-3.6232 0.77537-3.9496 0.55443-4.6962-3.1786z"/>
  <path id="path3848" fill="#fdfdfd" d="m2.1288 26.55c-0.36191-1.8839-0.56706-3.4868-0.45589-3.562 0.11116-0.07516 1.6845-0.49156 3.4962-0.92532 2.8597-0.68466 3.3809-0.33693 3.9521 2.6367 0.36191 1.8839 0.56706 3.4868 0.45589 3.562-0.11116 0.07516-1.6845 0.49156-3.4962 0.92532-2.8597 0.68466-3.3809 0.33693-3.9521-2.6367zm14.356-4.942c-2.5298-0.48305-2.7845-1.0468-2.0415-4.5173 1.0719-5.0062 0.70199-4.7488 5.457-3.7978 3.3628 0.67256 3.9294 1.2568 3.3417 3.4462-0.3892 1.45-0.71533 3.3394-0.72471 4.1988-0.01726 1.5802-0.80712 1.6679-6.0325 0.67012zm-12.518-2.503c-1.967-0.375-2.6749-1.162-2.1875-2.432 0.3963-1.032 0.7206-2.686 0.7206-3.674 0-1.3265 0.89945-1.5808 3.4375-0.97192 1.8906 0.45356 3.5285 0.88615 3.6396 0.96131 0.59512 0.40236-1.2429 6.9849-1.9103 6.8414-0.4355-0.094-2.1004-0.42-3.6999-0.725zm-3.1819-12.992c-0.94164-4.7082-1.1888-4.3504 3.7338-5.4038 3.6231-0.77541 3.9496-0.55448 4.6962 3.1786 0.942 4.7082 1.189 4.3504-3.7338 5.4038-3.6231 0.7758-3.9496 0.5545-4.6962-3.1786zm12.622-0.233c-0.336-2.2025-0.537-4.0644-0.446-4.1375 0.09039-0.073122 1.9324-0.46893 4.0935-0.87958 3.6619-0.69585 3.9706-0.47428 4.5393 3.2579 0.33562 2.2025 0.53626 4.0644 0.44587 4.1375-0.09039 0.073123-1.9324 0.46893-4.0935 0.87958-3.6619 0.69585-3.9706 0.47428-4.5393-3.2579z"/>
  <path id="path3846" fill="#fcfcfc" d="m2.5 25.625c0-2.5 0.625-3.125 3.125-3.125s3.125 0.625 3.125 3.125-0.625 3.125-3.125 3.125-3.125-0.625-3.125-3.125zm13.976-4.4461c-2.2767-0.91295-2.7163-1.7683-2.047-3.9833 1.2927-4.2781 2.3587-4.9047 5.9928-3.523 3.7885 1.4404 3.744 1.3219 2.1095 5.621-1.3267 3.4896-1.7364 3.6171-6.0553 1.8853zm-13.976-5.554c0-2.5 0.625-3.125 3.125-3.125s3.125 0.625 3.125 3.125-0.625 3.125-3.125 3.125-3.125-0.625-3.125-3.125zm-1.5935-9.7454c-0.33562-2.2025-0.53626-4.0644-0.44587-4.1375 0.09039-0.0732 1.9324-0.469 4.0934-0.87963 3.6619-0.69584 3.9707-0.47428 4.5394 3.2579 0.3356 2.2025 0.5362 4.0644 0.4458 4.1375-0.0903 0.0732-1.9324 0.469-4.0934 0.8796-3.6619 0.6959-3.9707 0.4743-4.5394-3.2579zm12.843-0.8796c0-3.3333 0.41667-3.75 3.75-3.75s3.75 0.41667 3.75 3.75-0.41667 3.75-3.75 3.75-3.75-0.41667-3.75-3.75z"/>
  <path id="path3844" fill="#fafafa" d="m2.5 25.625c0-2.5 0.625-3.125 3.125-3.125s3.125 0.625 3.125 3.125-0.625 3.125-3.125 3.125-3.125-0.625-3.125-3.125zm15-4.3348c-2.1788-0.57962-3.0124-1.5631-2.7531-3.2483 0.75939-4.9354 1.2615-5.3907 4.8674-4.414 2.8044 0.7596 3.4261 1.5592 3.0901 3.974-0.55959 4.0223-1.4846 4.6778-5.2044 3.6882zm-15-5.665c0-2.5 0.625-3.125 3.125-3.125s3.125 0.625 3.125 3.125-0.625 3.125-3.125 3.125-3.125-0.625-3.125-3.125zm-1.25-10.625c0-3.3333 0.4167-3.75 3.75-3.75s3.75 0.4167 3.75 3.75-0.4167 3.75-3.75 3.75-3.75-0.4167-3.75-3.75zm12.5 0c0-3.3333 0.41667-3.75 3.75-3.75s3.75 0.41667 3.75 3.75-0.41667 3.75-3.75 3.75-3.75-0.41667-3.75-3.75z"/>
  <path id="path3842" fill="#f8f8f8" d="m2.5 25.625c0-2.5 0.625-3.125 3.125-3.125s3.125 0.625 3.125 3.125-0.625 3.125-3.125 3.125-3.125-0.625-3.125-3.125zm12.986-6.162c-1.245-3.244 0.5-5.924 3.571-5.488 2.066 0.293 2.818 1.234 2.818 3.525 0 2.2909-0.75217 3.2318-2.8181 3.5252-1.6903 0.24003-3.1195-0.38525-3.5712-1.5625zm-12.986-3.838c0-2.5 0.625-3.125 3.125-3.125s3.125 0.625 3.125 3.125-0.625 3.125-3.125 3.125-3.125-0.625-3.125-3.125zm-1.25-10.625c0-3.3333 0.4167-3.75 3.75-3.75s3.75 0.4167 3.75 3.75-0.4167 3.75-3.75 3.75-3.75-0.4167-3.75-3.75zm12.5 0c0-3.3333 0.41667-3.75 3.75-3.75s3.75 0.41667 3.75 3.75-0.41667 3.75-3.75 3.75-3.75-0.41667-3.75-3.75z"/>
  <path id="path3840" fill="#f7f7f7" d="m2.5 25.625c0-2.5 0.625-3.125 3.125-3.125s3.125 0.625 3.125 3.125-0.625 3.125-3.125 3.125-3.125-0.625-3.125-3.125zm13.929-5.4881c-1.9906-1.2613-0.80659-6.3972 1.468-6.3678 3.0909 0.04002 4.87 2.1712 4.0278 4.8248-0.89142 2.8086-2.6979 3.3158-5.4958 1.543zm-13.474-3.254c-0.4329-1.128-0.1878-2.65 0.5448-3.383 1.9045-1.905 5.513-0.164 5.0155 2.419-0.5541 2.878-4.5596 3.572-5.5603 0.964zm-1.2195-9.9203c-1.2446-3.2434 0.4998-5.924 3.5712-5.4879 4.0058 0.56882 4.0058 6.4815 0 7.0503-1.6903 0.24003-3.1195-0.38525-3.5712-1.5625zm12.014-1.9627c0-3.3333 0.41667-3.75 3.75-3.75s3.75 0.41667 3.75 3.75-0.41667 3.75-3.75 3.75-3.75-0.41667-3.75-3.75z"/>
  <path id="path3838" fill="#f6f6f6" d="m2.9552 26.883c-0.4329-1.128-0.1878-2.65 0.5448-3.383 1.9045-1.905 5.513-0.164 5.0155 2.419-0.5541 2.878-4.5596 3.572-5.5603 0.964zm13.474-6.746c-1.9906-1.2613-0.80659-6.3972 1.468-6.3678 3.0909 0.04002 4.87 2.1712 4.0278 4.8248-0.89142 2.8086-2.6979 3.3158-5.4958 1.543zm-13.234-2.524c-0.80353-1.3001 0.41702-5.1225 1.6265-5.0937 2.1936 0.05224 3.9252 2.2857 3.2124 4.1433-0.86256 2.2478-3.6934 2.8038-4.8389 0.95036zm-1.3365-11.416c-1.0244-3.2275 0.7457-5.351 3.9465-4.7346 1.5184 0.2924 2.3203 1.5209 2.3203 3.5547 0 4.1834-5.0139 5.1279-6.2668 1.1799zm12.378 0.7657c-1.245-3.2434 0.5-5.924 3.571-5.4879 4.0058 0.56882 4.0058 6.4815 0 7.0503-1.6903 0.24003-3.1195-0.38525-3.5712-1.5625z"/>
 </g>
</svg>
