<?xml version="1.0" encoding="UTF-8" standalone="no"?>
<!-- Created with Inkscape (http://www.inkscape.org/) -->
<svg id="svg3930" xmlns:rdf="http://www.w3.org/1999/02/22-rdf-syntax-ns#" xmlns="http://www.w3.org/2000/svg" height="26.25" viewBox="0 0 23.75 26.25" width="23.75" version="1.1" xmlns:cc="http://creativecommons.org/ns#" xmlns:dc="http://purl.org/dc/elements/1.1/">
 <metadata id="metadata3936">
  <rdf:RDF>
   <cc:Work rdf:about="">
    <dc:format>image/svg+xml</dc:format>
    <dc:type rdf:resource="http://purl.org/dc/dcmitype/StillImage"/>
    <dc:title/>
   </cc:Work>
  </rdf:RDF>
 </metadata>
 <g id="g3940" transform="translate(.105 -.525)">
  <path id="path3954" fill="#fdfdfd" d="m6.3884 25.322-6.7366-0.46513 0.79021-8.3661c0.43462-4.601 0.79859-9.491 0.80889-10.866 0.0212-2.851 5.7467-6.1992 7.0353-4.1141 0.4457 0.721 2.9948 0.9787 5.8688 0.5932 5.942-0.7969 9.595 0.7665 9.595 4.1069 0 1.6291-1.0775 2.5362-3.4375 2.8937l-3.4375 0.52074 3.5712 0.18729c2.7054 0.14188 3.3873 0.66667 2.8125 2.1645-0.417 1.088-0.758 4.744-0.758 8.125v6.148l-4.688-0.231c-2.578-0.127-7.718-0.441-11.424-0.697z"/>
  <path id="path3952" fill="#fcfcfc" d="m8.3217 25.341-8.5533-0.461 0.89113-7.752c0.49017-4.264 1.5266-8.1663 2.3033-8.6714 1.0073-0.655 0.9642-0.9238-0.1503-0.9375-0.8594-0.0105-1.5581-1.0035-1.5527-2.2066 0.0113-2.537 5.8252-5.7452 6.9915-3.8581 0.4142 0.6701 2.8047 1.1309 5.3137 1.024 6.464-0.2756 10.185 1.1554 10.185 3.9174 0 1.9034-1.0174 2.3945-5.3125 2.5643l-5.3125 0.21013 4.7451 0.49376 4.7451 0.49376-0.3701 7.7336c-0.41907 8.757 0.56565 8.2301-13.923 7.4498z"/>
  <path id="path3950" fill="#fbfbfb" d="m10 25.075c-7.8845-0.589-9.3584-1.048-9.2708-2.887 0.05726-1.204 0.19788-4.68 0.3125-7.726 0.1756-4.668 0.6502-5.6232 3.0208-6.0798l2.8125-0.5417-2.8125-0.1703c-4.0341-0.2441-3.7802-4.6938 0.3125-5.4761 2.1469-0.4105 3.125-0.0418 3.125 1.178 0 1.0237-0.611 1.3978-1.4431 0.8835-0.9539-0.5895-1.1011-0.3384-0.4342 0.7406 0.7911 1.2801 1.3612 1.1508 2.6404-0.5986 1.1972-1.6374 2.6199-2.0335 5.3459-1.4882 2.3563 0.47125 3.9395 0.18939 4.329-0.7707 0.35955-0.88608 0.65512-0.6499 0.71289 0.56966 0.05428 1.1458-0.60444 2.3671-1.4638 2.7138-0.93343 0.37665-0.6818 0.67021 0.625 0.72917 1.204 0.0542 2.188-0.4639 2.188-1.1514s0.84375-1.25 1.875-1.25 1.8664 0.42188 1.8559 0.9375c-0.05219 2.5561-2.4132 3.9356-7.5014 4.383l-5.605 0.4927 5.997 0.2184 5.997 0.2184-0.372 7.713c-0.205 4.243-0.935 7.792-1.622 7.888s-5.469-0.14-10.625-0.526z"/>
  <path id="path3948" fill="#fafafa" d="m1.1458 24.483c-0.28642-0.284-0.32673-4.009-0.0895-8.278l0.4312-7.7623 5.6807 0.7787c3.1248 0.4282 7.8518 0.7786 10.506 0.7786h4.826v7.5 7.5h-10.417c-5.7288 0-10.651-0.233-10.937-0.517zm4.7917-16.644c-3.637-0.3804-4.6875-1.0337-4.6875-2.9149 0-1.3335 0.8438-2.4245 1.875-2.4245s1.875 0.8438 1.875 1.875c0 2.4061 1.1275 2.3734 3.8745-0.1127 2.2395-2.0271 7.3755-1.4548 7.3755 0.8219 0 0.6412 0.844 1.1658 1.875 1.1658s1.875-0.5625 1.875-1.25 0.5625-1.25 1.25-1.25 1.25 1.125 1.25 2.5c0 2.1786-0.76329 2.473-5.9375 2.2899-3.265-0.1156-8.0464-0.4308-10.624-0.7005zm0.4112-4.8186c0.06-1.4561 0.3562-1.7523 0.7552-0.7552 0.3611 0.9024 0.3167 1.9805-0.0987 2.3959-0.4154 0.4153-0.7108-0.323-0.6565-1.6407zm11.25 0c0.05998-1.4562 0.35618-1.7524 0.75521-0.75521 0.36109 0.90234 0.31668 1.9805-0.09869 2.3958-0.416 0.4154-0.712-0.3229-0.657-1.6406z"/>
  <path id="path3946" fill="#f9f9f9" d="m1.25 16.78c0-8.0198 0.102-8.2942 2.8125-7.5679 1.5469 0.4146 6.3565 0.7614 10.688 0.7708l7.875 0.0171-0.375 7.188-0.375 7.187-10.313 0.363-10.312 0.363v-8.3213zm5.9375-8.9488c-4.0026-0.3156-5.9375-1.0328-5.9375-2.2009 0-2.593 2.4073-3.5762 3.2676-1.3345 0.9265 2.4146 3.7338 2.5564 4.6251 0.2337 0.7186-1.8725 7.1073-1.3186 7.1073 0.6162 0 0.6074 0.844 1.1043 1.875 1.1043s1.875-0.5625 1.875-1.25 0.5625-1.25 1.25-1.25 1.25 1.125 1.25 2.5c0 2.6603-0.70454 2.7331-15.312 1.5812zm-0.8388-4.8104c0.06-1.4561 0.3562-1.7523 0.7552-0.7552 0.3611 0.9024 0.3167 1.9805-0.0987 2.3959-0.4154 0.4153-0.7108-0.323-0.6565-1.6407zm11.25 0c0.05998-1.4562 0.35618-1.7524 0.75521-0.75521 0.36109 0.90234 0.31668 1.9805-0.09869 2.3958-0.416 0.4154-0.712-0.3229-0.657-1.6406z"/>
  <path id="path3944" fill="#f8f8f8" d="m3.4375 24.138c-1.7444-0.456-2.1875-1.945-2.1875-7.355v-6.783h10.625 10.625v3.5938c0 1.9766-0.35156 5.3516-0.78125 7.5-0.77712 3.8856-0.82175 3.9055-8.4375 3.7612-4.2107-0.08-8.6404-0.402-9.8435-0.717zm5.1783-16.536c-6.2447-0.6481-6.9162-0.9901-6.1561-3.136 0.7616-2.1502 0.9394-2.1837 1.6575-0.3125 0.8607 2.2429 4.6328 2.9318 4.6328 0.8461 0-1.7444 4.5071-1.561 7.6803 0.3125 2.1171 1.25 2.7595 1.25 3.2122 0 0.893-2.4654 2.858-1.8208 2.858 0.9375 0 2.709-0.418 2.7498-13.884 1.3524zm-2.2671-4.5816c0.06-1.4561 0.3562-1.7523 0.7552-0.7552 0.3611 0.9024 0.3167 1.9805-0.0987 2.3959-0.4154 0.4153-0.7108-0.323-0.6565-1.6407z"/>
  <path id="path3942" fill="#f6f6f6" d="m4.6875 24.105c-3.2643-0.495-3.4375-0.863-3.4375-7.313v-6.792h10.625c11.882 0 11.58-0.3176 9.8227 10.312l-0.775 4.688-6.399-0.187c-3.519-0.103-7.9459-0.422-9.8365-0.708zm5.6245-16.28c-7.0976-0.4032-7.8085-0.6955-7.774-3.1966 0.0341-2.471 0.1685-2.5289 1.3121-0.5654 1.3625 2.3392 4.8999 3.016 4.8999 0.9375 0-1.9465 4.9592-1.4694 7.1129 0.68428 1.7457 1.7457 2.1635 1.7268 4.2857-0.19373 2.232-2.0207 2.351-1.9922 2.351 0.5657 0 1.8239-0.70638 2.616-2.1875 2.4529-1.2031-0.13247-5.7031-0.44056-10-0.68465z"/>
 </g>
</svg>
