<?xml version="1.0" encoding="UTF-8" standalone="no"?>
<!-- Created with Inkscape (http://www.inkscape.org/) -->
<svg id="svg4034" xmlns:rdf="http://www.w3.org/1999/02/22-rdf-syntax-ns#" xmlns="http://www.w3.org/2000/svg" height="23.75" viewBox="0 0 30 23.75" width="30" version="1.1" xmlns:cc="http://creativecommons.org/ns#" xmlns:dc="http://purl.org/dc/elements/1.1/">
 <metadata id="metadata4040">
  <rdf:RDF>
   <cc:Work rdf:about="">
    <dc:format>image/svg+xml</dc:format>
    <dc:type rdf:resource="http://purl.org/dc/dcmitype/StillImage"/>
    <dc:title/>
   </cc:Work>
  </rdf:RDF>
 </metadata>
 <g id="g4044" transform="translate(-.095 -.2375)">
  <path id="path4058" fill="#fefefe" d="m2.0687 21.464c-2.7583-3.048-2.6148-7.168 0.3532-10.136 1.332-1.3319 1.8623-2.6083 1.1784-2.8362-2.5798-0.86 0.536-4.6249 5.457-6.5939 13.752-5.5022 25.348 4.7075 19.091 16.807-1.6812 3.251-2.1413 3.447-4.9902 2.1254-1.7261-0.80068-3.1427-2.3942-3.1481-3.5411s-0.3323-2.9258-0.72653-3.9532c-0.44238-1.1528 0.15578-2.0956 1.5625-2.4627 1.3308-0.34731 0.88945-0.5428-1.0606-0.46977-2.7645 0.10352-3.1405 0.49764-2.1825 2.2876 0.63656 1.1894 1.0145 4.163 0.83989 6.6079l-0.31748 4.4454-6.9938 0.0025c-5.191 0.002-7.528-0.587-9.0633-2.283zm8.2433-2.292c-0.85938-0.34676-2.2656-0.34676-3.125 0-0.85938 0.34677-0.15625 0.63048 1.5625 0.63048s2.4219-0.28372 1.5625-0.63048zm1.875-2.5338c-1.2031-0.31441-3.1719-0.31441-4.375 0s-0.21875 0.57165 2.1875 0.57165 3.3906-0.25724 2.1875-0.57165zm-1.875-2.4662c-0.85938-0.34676-2.2656-0.34676-3.125 0-0.85938 0.34677-0.15625 0.63048 1.5625 0.63048s2.4219-0.28372 1.5625-0.63048zm1.274-6.2419c-0.846-0.3424-2.5335-0.3633-3.7497-0.0463-1.2162 0.3169-0.5238 0.597 1.5387 0.6225 2.0625 0.025475 3.0576-0.23383 2.2113-0.57624zm8.7262-0.00793c-0.85938-0.34677-2.2656-0.34677-3.125 0-0.85938 0.34677-0.15625 0.63048 1.5625 0.63048s2.4219-0.28372 1.5625-0.63048z"/>
  <path id="path4056" fill="#fcfcfc" d="m2.5 21.25c-3.4103-3.41-3.1375-6.817 0.7936-9.909 4.2745-3.3626 8.2644-3.2815 12.371 0.251 2.876 2.4738 3.1911 3.4462 2.4306 7.5-0.868 4.623-0.92 4.658-6.985 4.658-4.4443 0-6.7928-0.682-8.611-2.5zm7.8125-2.0779c-0.85938-0.34676-2.2656-0.34676-3.125 0-0.85938 0.34677-0.15625 0.63048 1.5625 0.63048s2.4219-0.28372 1.5625-0.63048zm1.875-2.5338c-1.2031-0.31441-3.1719-0.31441-4.375 0s-0.21875 0.57165 2.1875 0.57165 3.3906-0.25724 2.1875-0.57165zm-1.875-2.4662c-0.85938-0.34676-2.2656-0.34676-3.125 0-0.85938 0.34677-0.15625 0.63048 1.5625 0.63048s2.4219-0.28372 1.5625-0.63048zm14.693 7.39c-0.003-0.859-1.13-1.562-2.505-1.562-1.768 0-2.5-0.833-2.5-2.847 0-1.566-0.848-4.057-1.884-5.537-1.752-2.5016-1.687-2.726 0.937-3.2081 1.552-0.2851-1.537-0.3976-6.865-0.25-5.3286 0.1476-9.688-0.1341-9.688-0.626 0-1.7164 4.6855-5.1162 8.597-6.238 9.073-2.6022 18.903 2.5283 18.903 9.8661 0 2.0787-1.1229 5.6212-2.4953 7.8722s-2.4974 3.3896-2.5 2.5302zm-1.5932-8.5677c-0.41536-0.41536-1.4935-0.45977-2.3958-0.09869-0.99717 0.39903-0.70097 0.69523 0.75521 0.75521 1.3177 0.05427 2.056-0.24116 1.6406-0.65652zm-1.25-2.5c-0.41536-0.41536-1.4935-0.45977-2.3958-0.09868-0.99717 0.39903-0.70097 0.69523 0.75521 0.75521 1.3177 0.05428 2.056-0.24116 1.6406-0.65652z"/>
  <path id="path4054" fill="#fbfbfb" d="m2.5907 20.456c-3.1689-4.028-3.182-4.449-0.2518-8.068 3.2788-4.0486 10.823-4.0125 14.127 0.068 1.4201 1.7537 2.0437 3.762 1.5333 4.9375-0.4732 1.0898-0.8996 2.9659-0.94754 4.169-0.0702 1.7616-1.2343 2.1875-5.9786 2.1875-4.8758 0-6.3381-0.5678-8.4821-3.2936zm7.7213-1.284c-0.85938-0.34676-2.2656-0.34676-3.125 0-0.85938 0.34677-0.15625 0.63048 1.5625 0.63048s2.4219-0.28372 1.5625-0.63048zm1.875-2.5338c-1.2031-0.31441-3.1719-0.31441-4.375 0s-0.21875 0.57165 2.1875 0.57165 3.3906-0.25724 2.1875-0.57165zm-1.875-2.4662c-0.85938-0.34676-2.2656-0.34676-3.125 0-0.85938 0.34677-0.15625 0.63048 1.5625 0.63048s2.4219-0.28372 1.5625-0.63048zm12.5 6.1957c-3.527-0.68-4.071-6.546-0.624-6.743 1.458-0.083 1.145-0.458-0.938-1.125-2.68-0.858-2.769-1.037-0.625-1.253 4.253-0.43-5.657-2.858-12.188-2.9865-3.2651-0.0643-5.937-0.5512-5.937-1.0821 0-2.384 8.45-5.9193 14.159-5.9237 5.005-0.0039 6.656 0.6179 9.687 3.6491 2.01 2.0097 3.654 4.8501 3.654 6.3122 0 2.313-3.3277 10.329-4.0946 9.8639-0.15422-0.09362-1.546-0.414-3.0929-0.71194zm-2.5-12.446c-0.85938-0.34677-2.2656-0.34677-3.125 0-0.85938 0.34677-0.15625 0.63048 1.5625 0.63048s2.4219-0.28372 1.5625-0.63048z"/>
  <path id="path4052" fill="#fafafa" d="m3.2002 20.814c-3.8754-3.876-2.9816-8.001 2.2061-10.182 7.6257-3.2066 14.409 2.221 11.71 9.371-1.771 4.692-9.5798 5.147-13.916 0.811zm7.1118-1.642c-0.85938-0.34676-2.2656-0.34676-3.125 0-0.85938 0.34677-0.15625 0.63048 1.5625 0.63048s2.4219-0.28372 1.5625-0.63048zm1.875-2.5338c-1.2031-0.31441-3.1719-0.31441-4.375 0s-0.21875 0.57165 2.1875 0.57165 3.3906-0.25724 2.1875-0.57165zm-1.875-2.4662c-0.85938-0.34676-2.2656-0.34676-3.125 0-0.85938 0.34677-0.15625 0.63048 1.5625 0.63048s2.4219-0.28372 1.5625-0.63048zm12.5 6.0571c-3.491-0.5-3.991-5.988-0.624-6.867 1.533-0.401 1.253-0.642-0.938-0.805-2.889-0.215-2.936-0.314-0.625-1.307 2.232-0.959 2.14-1.084-0.864-1.162-1.85-0.048-3.751-0.715-4.225-1.4814-0.525-0.85-3.191-1.1696-6.8346-0.8195-4.7261 0.4542-5.8353 0.2134-5.3111-1.1528 1.1043-2.8777 7.3977-5.3843 13.519-5.3843 4.7253 0 6.4516 0.66839 9.4371 3.6538 4.1928 4.1928 4.5686 7.3341 1.4663 12.257-1.535 2.4359-3.0264 3.3511-5 3.0683zm-2.5-12.307c-0.85938-0.34677-2.2656-0.34677-3.125 0-0.85938 0.34677-0.15625 0.63048 1.5625 0.63048s2.4219-0.28372 1.5625-0.63048z"/>
  <path id="path4050" fill="#f9f9f9" d="m4.0625 21.881c-3.5952-2.586-3.8251-8.751-0.3947-10.587 6.0606-3.2436 13.843-0.60263 13.813 4.6875-0.0105 1.8664-0.47792 4.1166-1.0386 5.0003-1.6757 2.6411-9.1976 3.1873-12.38 0.89897zm6.25-2.7086c-0.85938-0.34676-2.2656-0.34676-3.125 0-0.85938 0.34677-0.15625 0.63048 1.5625 0.63048s2.4219-0.28372 1.5625-0.63048zm1.875-2.5338c-1.2031-0.31441-3.1719-0.31441-4.375 0s-0.21875 0.57165 2.1875 0.57165 3.3906-0.25724 2.1875-0.57165zm-1.875-2.4662c-0.85938-0.34676-2.2656-0.34676-3.125 0-0.85938 0.34677-0.15625 0.63048 1.5625 0.63048s2.4219-0.28372 1.5625-0.63048zm12.813 5.921c-3.183-0.914-3.863-5.962-0.908-6.737 1.479-0.388 1.174-0.639-0.967-0.799-2.889-0.215-2.936-0.314-0.625-1.307 2.304-0.99 2.256-1.088-0.625-1.25-2.901-0.1631-2.946-0.2568-0.625-1.3079 1.705-0.7723-0.53-1.0424-7.032-0.8497-10.433 0.3093-11.709-1.079-4.2449-4.6209 8.4069-3.9895 19.409-0.8446 21.137 6.0425 1.189 4.737-2.787 11.783-6.11 10.829z"/>
  <path id="path4048" fill="#f8f8f8" d="m4.0625 21.881c-5.7686-4.149-2.311-11.881 5.3125-11.881 6.5639 0 10.326 5.8459 7.0672 10.982-1.6757 2.6411-9.1976 3.1873-12.38 0.89897zm6.875-2.7424c-1.2031-0.31441-3.1719-0.31441-4.375 0s-0.21875 0.57165 2.1875 0.57165 3.3906-0.25724 2.1875-0.57165zm1.875-2.5205c-1.5469-0.29794-4.0781-0.29794-5.625 0s-0.28125 0.54171 2.8125 0.54171 4.3594-0.24377 2.8125-0.54171zm-1.875-2.4795c-1.2031-0.31441-3.1719-0.31441-4.375 0s-0.21875 0.57165 2.1875 0.57165 3.3906-0.25724 2.1875-0.57165zm12.187 5.955c-1.4273-0.40993-2.5-1.7907-2.5-3.218 0-1.3957 1.1043-2.8591 2.5-3.3129 2.214-0.72 2.142-0.837-0.625-1.025-2.886-0.196-2.934-0.295-0.625-1.287 2.174-0.934 2.011-1.102-1.25-1.2867-3.699-0.2096-3.708-0.226-0.625-1.2133 2.471-0.7915 1.687-1.0558-3.75-1.2638-3.781-0.1446-8.2812-0.1565-10-0.0264l-3.125 0.2365 2.6725-2.7359c6.0195-6.1621 19.724-4.0056 22.874 3.5993 1.288 3.1123 1.171 4.3363-0.762 7.9643-1.76 3.301-2.86 4.122-4.785 3.569z"/>
  <path id="path4046" fill="#f6f6f6" d="m5 22.154c-6.5655-3.344-3.3942-12.154 4.375-12.154 6.11 0 10.197 6.146 7.168 10.78-1.507 2.307-8.1571 3.098-11.543 1.374zm5.9375-3.0156c-1.2031-0.31441-3.1719-0.31441-4.375 0s-0.21875 0.57165 2.1875 0.57165 3.3906-0.25724 2.1875-0.57165zm1.875-2.5205c-1.5469-0.29794-4.0781-0.29794-5.625 0s-0.28125 0.54171 2.8125 0.54171 4.3594-0.24377 2.8125-0.54171zm-1.875-2.4795c-1.2031-0.31441-3.1719-0.31441-4.375 0s-0.21875 0.57165 2.1875 0.57165 3.3906-0.25724 2.1875-0.57165zm9.9771 2.5827c-0.407-2.129 0.117-2.976 2.083-3.363 2.288-0.451 2.224-0.551-0.498-0.776-2.893-0.239-2.939-0.337-0.625-1.332 2.174-0.934 2.011-1.102-1.25-1.2867-3.699-0.2096-3.708-0.226-0.625-1.2133 2.683-0.8593 2.33-1.0541-2.5-1.3777-3.094-0.2073-7.5139-0.2731-9.8225-0.1463-3.5125 0.1929-3.9552-0.0615-2.7125-1.5588 4.1318-4.9785 16.624-5.328 21.355-0.5975 2.559 2.5595 3.239 9.2163 1.261 12.342-1.876 2.964-6.05 2.532-6.666-0.691z"/>
 </g>
</svg>
