<?xml version="1.0" encoding="UTF-8" standalone="no"?>
<!-- Created with Inkscape (http://www.inkscape.org/) -->
<svg id="svg3482" xmlns:rdf="http://www.w3.org/1999/02/22-rdf-syntax-ns#" xmlns="http://www.w3.org/2000/svg" height="72.5" viewBox="0 0 100 72.5" width="100" version="1.1" xmlns:cc="http://creativecommons.org/ns#" xmlns:dc="http://purl.org/dc/elements/1.1/">
 <metadata id="metadata3488">
  <rdf:RDF>
   <cc:Work rdf:about="">
    <dc:format>image/svg+xml</dc:format>
    <dc:type rdf:resource="http://purl.org/dc/dcmitype/StillImage"/>
    <dc:title/>
   </cc:Work>
  </rdf:RDF>
 </metadata>
 <g id="g3492" transform="translate(0 -.145)">
  <path id="path3504" fill="#fefefe" d="m48.225 68.438c-0.71728-3.4791-1.0179-3.7484-2.0934-1.875-1.8949 3.3006-2.8751 2.7192-5.8949-3.4965-3.3492-6.8937-2.4889-9.1707 4.6874-12.407 4.9199-2.2186 5.232-2.2186 10.152 0 7.1763 3.2361 8.0366 5.5131 4.6874 12.407-3.0198 6.2157-4.0001 6.7971-5.8949 3.4965-1.0755-1.8734-1.3761-1.6041-2.0934 1.875-0.461 2.234-1.259 4.062-1.775 4.062-0.51562 0-1.3144-1.8281-1.775-4.0625zm3.963-10.55c-1.2031-0.31441-3.1719-0.31441-4.375 0s-0.21875 0.57165 2.1875 0.57165 3.3906-0.25724 2.1875-0.57165zm-32.642-5.334c-3.188-3.408-5.796-6.945-5.796-7.86 0-1.798 11.278-13.444 13.02-13.444 0.5823 0 6.0714 2.8685 12.198 6.3745l11.139 6.375 11.045-6.374c6.075-3.506 11.556-6.375 12.181-6.375 1.719 0 12.917 11.733 12.917 13.534 0 1.906-11.084 13.966-12.835 13.966-0.68371 0-6.2317-2.8548-12.329-6.3439l-11.086-6.344-11.086 6.344c-6.097 3.489-11.645 6.344-12.329 6.344-0.68371 0-3.8513-2.7884-7.0392-6.1964zm-18.296-2.929c0-0.89375 0.66171-2.2867 1.4705-3.0955 1.1273-1.1273 0.93621-2.0608-0.81873-4-2.2443-2.48-2.2232-2.53 1.0734-2.53 3.0214 0 3.2211-0.265 1.9675-2.607-1.9928-3.724-0.5569-4.399 4.3639-2.052 3.1686 1.511 4.4183 1.6499 4.8281 0.53653 0.42587-1.1572 0.93126-1.1453 2.2008 0.05208 1.3511 1.2742 1.0008 2.2298-1.9446 5.3041l-3.5926 3.7498 2.9437 3.1334 2.9437 3.1334h-7.7179c-5.4993-0.001-7.7179-0.468-7.7179-1.626zm85.008-1.508 2.944-3.134-3.593-3.75c-2.9453-3.0742-3.2956-4.0298-1.9446-5.3041 1.2696-1.1973 1.775-1.2093 2.2008-0.05208 0.40972 1.1134 1.6594 0.97448 4.8281-0.53653 4.9208-2.3466 6.3567-1.6713 4.3639 2.0523-1.253 2.342-1.054 2.607 1.968 2.607 3.2966 0 3.3177 0.04971 1.0735 2.5295-1.7549 1.9392-1.946 2.8727-0.81873 4 3.3719 3.3718 1.587 4.7205-6.2474 4.7205h-7.7179l2.9437-3.1334zm-44.383-10.203c-3.4375-1.7706-6.4972-3.4447-6.7994-3.7203-0.30215-0.27561 0.71467-4.4258 2.2596-9.2226l2.809-8.721h9.8132 9.8132l2.6148 7.7427c1.438 4.258 2.615 8.36 2.615 9.114 0 1.461-12.755 8.183-15.34 8.085-0.844-0.032-4.348-1.507-7.785-3.278zm4.375-6.664c0-0.688-0.562-1.25-1.25-1.25-0.6875 0-1.25 0.5625-1.25 1.25s0.5625 1.25 1.25 1.25 1.25-0.5625 1.25-1.25zm8.75 0c0-0.688-0.562-1.25-1.25-1.25-0.6875 0-1.25 0.5625-1.25 1.25s0.5625 1.25 1.25 1.25 1.25-0.5625 1.25-1.25zm-25.593-1.562c-1.243-3.773-4.713-28.549-4.086-29.175 0.99-0.99037 14.679 8.3098 14.679 9.972 0 4.059-6.651 20.765-8.267 20.765-0.99637 0-2.0432-0.70312-2.3263-1.5625zm33.843-8.062c-1.787-5.368-3.25-10.413-3.25-11.211 0-1.7975 12.334-10.997 13.364-9.968 0.41 0.41046-0.038 7.3617-0.997 15.447-1.397 11.787-2.1513 14.779-3.8048 15.096-1.5717 0.30094-2.8356-1.927-5.3125-9.3644zm-20.75-9.26c0-1.8195 0.5757-2.4128 1.8623-1.9191 1.249 0.47927 2.1169-0.30002 2.6355-2.3663 1.0222-4.0729 4.9822-4.0729 6.0045 0 0.5186 2.0662 1.3866 2.8455 2.6355 2.3663 1.286-0.4936 1.862 0.1 1.862 1.919 0 2.386-0.706 2.634-7.5 2.634s-7.5-0.248-7.5-2.634z"/>
  <path id="path3502" fill="#fdfdfd" d="m48.222 68.438c-0.79879-3.8605-0.9302-3.9427-2.6433-1.6538-0.99152 1.3248-2.0207 2.1686-2.287 1.875-1.9067-2.1015-5.6491-11.326-5.1367-12.661 0.34754-0.90569 3.1549-2.9851 6.2385-4.621l5.606-2.974 5.6066 2.9743c3.0836 1.6359 5.891 3.7153 6.2385 4.621 0.51236 1.3352-3.23 10.559-5.1367 12.661-0.26635 0.29356-1.2955-0.55019-2.287-1.875-1.714-2.289-1.845-2.207-2.644 1.654-0.462 2.234-1.262 4.062-1.778 4.062-0.51562 0-1.3158-1.8281-1.7781-4.0625zm8.294-10.713c1.177-0.468-1.755-0.85-6.516-0.85-4.7612 0-7.6933 0.38234-6.5159 0.84964 2.7577 1.0945 10.274 1.0945 13.032 0zm-37.113-5.8819-5.9011-6.9073 5.8459-6.8427c3.215-3.764 6.347-6.843 6.96-6.843 0.61325 0 5.8767 2.8125 11.696 6.25 5.8198 3.4375 11.218 6.25 11.995 6.25 0.77756 0 6.1754-2.8125 11.995-6.25 5.8198-3.4375 11.083-6.25 11.696-6.25 0.61325 0 3.7457 3.0792 6.9609 6.8427l5.8459 6.8427-5.9011 6.9073c-3.244 3.799-6.377 6.907-6.959 6.907-0.583 0-5.822-2.812-11.642-6.25s-11.217-6.25-11.995-6.25c-0.77756 0-6.1754 2.8125-11.995 6.25-5.8198 3.4375-11.058 6.25-11.641 6.25-0.58289 0-3.7153-3.1083-6.9609-6.9073zm-17.276-1.382c-0.4341-0.434-0.2018-1.888 0.5163-3.229 1.0044-1.877 0.8053-2.993-0.8627-4.836-2.086-2.305-2.0406-2.396 1.1943-2.396 3.0214 0 3.2211-0.26462 1.9675-2.6071-1.9263-3.5993-1.0542-3.9798 4.144-1.8078 2.5466 1.064 4.6465 1.3573 4.8794 0.68146 0.25184-0.73084 1.1204-0.74455 2.2619-0.03569 1.5442 0.959 1.2462 1.7842-1.7883 4.9515l-3.6413 3.8007 2.9437 3.1334 2.9437 3.1334h-6.8846c-3.7868 0-7.24-0.355-7.6742-0.789zm84.131-2.344 2.944-3.134-3.642-3.801c-3.0345-3.1673-3.3325-3.9925-1.7883-4.9515 1.1414-0.70886 2.01-0.69516 2.2619 0.03569 0.23289 0.67584 2.3329 0.38256 4.8794-0.68146 5.1982-2.172 6.0703-1.7915 4.144 1.8078-1.253 2.343-1.054 2.608 1.968 2.608 3.2349 0 3.2803 0.09107 1.1943 2.396-1.668 1.8431-1.8671 2.959-0.86271 4.8356 1.821 3.403 0.724 4.018-7.158 4.018h-6.8846l2.9437-3.1334zm-44.383-10.203c-3.4375-1.7706-6.48-3.4275-6.7612-3.6821-0.28114-0.2546 0.83084-4.4048 2.4711-9.2226l2.982-8.759h9.433 9.4329l2.9822 8.7597c1.6402 4.8178 2.7522 8.9689 2.4711 9.2246-1.5046 1.3686-13.788 7.0072-15.157 6.9575-0.882-0.032-4.417-1.507-7.854-3.278zm5.625-6.724c0-0.57337-0.61151-1.4204-1.3589-1.8823-1.7356-1.0727-4.1825 1.3049-3.1171 3.0288 0.887 1.436 4.476 0.517 4.476-1.146zm8.75 0c0-0.57337-0.61151-1.4204-1.3589-1.8823-1.7356-1.0727-4.1825 1.3049-3.1171 3.0288 0.887 1.436 4.476 0.517 4.476-1.146zm-26.698-2.128c-1.225-4.343-4.792-27.989-4.296-28.484 0.389-0.38997 11.852 6.6379 14.624 8.9657 0.277 0.2332-1.122 5.2123-3.109 11.065-3.474 10.232-5.913 13.087-7.219 8.453zm33.677-8.453c-1.987-5.853-3.326-10.928-2.976-11.279 2.103-2.1023 12.835-9.1582 13.27-8.7237 0.56 0.5602-2.066 24.806-3.082 28.456-1.293 4.642-3.74 1.773-7.212-8.453zm-20.729-8.109c0-2.7643 1.9424-3.3914 2.904-0.9375 0.33677 0.85938 0.99235-0.14509 1.4568-2.2321 0.565-2.5414 1.602-3.7947 3.139-3.7947 1.5368 0 2.5736 1.2532 3.1392 3.7946 0.4645 2.0871 1.1201 3.0915 1.4568 2.2321 0.962-2.4534 2.904-1.8263 2.904 0.938 0 2.222-0.833 2.5-7.5 2.5s-7.5-0.278-7.5-2.5z"/>
  <path id="path3500" fill="#fcfcfc" d="m48.225 67.188c-0.71728-3.4791-1.0179-3.7484-2.0934-1.875-1.8931 3.2975-2.875 2.7195-5.8772-3.46l-2.7438-5.6475 3.4322 0.83051c1.8877 0.45678 4.6978 1.2967 6.2447 1.8665 1.5469 0.56982 4.0781 0.56982 5.625 0s4.357-1.4098 6.2447-1.8665l3.4322-0.83051-2.7438 5.6475c-3.0022 6.1794-3.9841 6.7575-5.8772 3.46-1.0755-1.8734-1.3761-1.6041-2.0934 1.875-0.46 2.234-1.258 4.062-1.774 4.062-0.51562 0-1.3144-1.8281-1.775-4.0625zm-28.675-15.406-6.075-6.829 5.33-5.914c2.932-3.253 5.762-6.404 6.289-7.002 1.038-1.179 23.656 11.215 23.656 12.963 0 0.93006-21.407 13.861-22.648 13.681-0.26216-0.03801-3.2105-3.1423-6.5518-6.8984zm42.638 0.585c-6.016-3.475-10.938-6.794-10.938-7.374 0-1.7433 22.621-14.133 23.656-12.956 0.52673 0.59853 3.3688 3.763 6.3158 7.0321l5.3581 5.9439-6.0784 6.5561c-3.3431 3.6059-6.3705 6.6822-6.7276 6.8363-0.357 0.154-5.571-2.563-11.586-6.038zm-18.75 4.2379c-4.776-0.724-4.296-2.366 1.562-5.355l5-2.5508 5 2.5508c2.75 1.4029 5 3.0283 5 3.6119 0 0.58357-2.1094 1.4097-4.6875 1.8358-4.8394 0.79991-6.0429 0.79048-11.875-0.09301zm-39.335-6.232c-2.3695-0.458-2.5591-0.877-1.3055-2.885 1.1957-1.914 1.015-2.857-0.9779-5.1l-2.4445-2.752 3.4375 0.634c3.6897 0.68 4.1902-0.278 2.1435-4.102-1.5714-2.936-0.9594-3.001 4.022-0.425 2.5436 1.3153 4.1274 1.5503 4.6584 0.69098 0.49914-0.80762 1.4956-0.87484 2.6247-0.17704 1.4976 0.92557 1.1749 1.7982-1.8213 4.9256l-3.642 3.801 2.944 3.134 2.944 3.133-4.906-0.17c-2.6976-0.094-6.1524-0.412-7.6771-0.707zm82.155-2.256 2.944-3.134-3.642-3.801c-2.9962-3.1274-3.3189-4-1.8213-4.9256 1.1291-0.6978 2.1255-0.63058 2.6247 0.17704 0.53106 0.85928 2.1148 0.62436 4.6584-0.69098 4.9814-2.576 5.5934-2.5113 4.0219 0.42495-2.0467 3.8242-1.5462 4.782 2.1435 4.102l3.4375-0.6335-2.4445 2.7518c-1.9649 2.2119-2.164 3.2009-1.0148 5.0411 1.2472 1.9971 0.941 2.387-2.3992 3.0551-2.105 0.422-5.544 0.767-7.64 0.767h-3.8116l2.9437-3.1334zm-44.138-10.731c-7.997-4.127-7.829-3.383-3.353-14.886l2.1892-5.625h9.0437 9.0437l2.1892 5.625c4.4904 11.538 4.681 10.753-3.6295 14.948-4.1426 2.0912-7.6887 3.7751-7.8802 3.742-0.19148-0.03306-3.6127-1.7449-7.6028-3.804zm4.8219-4.9948c1.2882-2.0843-1.609-4.4744-3.3334-2.75-1.442 1.442-0.54 4.109 1.391 4.109 0.60635 0 1.4804-0.61151 1.9423-1.3589zm8.75 0c1.2882-2.0843-1.609-4.4744-3.3334-2.75-1.442 1.442-0.54 4.109 1.391 4.109 0.60635 0 1.4804-0.61151 1.9423-1.3589zm-25.564-3.763c-1.375-3.324-5.49-27.433-4.8-28.123 0.336-0.33526 12.005 6.9089 14.538 9.025 0.627 0.524-6.133 19.471-7.482 20.973-0.56659 0.6302-1.5617-0.19695-2.2557-1.875zm36.334 0.01339c-4.555-12.146-6.748-18.753-6.328-19.061 15.616-11.45 14.441-12.142 11.915 7.014-1.729 13.108-3.642 17.234-5.587 12.047zm-23.962-15.442c0-0.99068 0.5625-2.1489 1.25-2.5738s1.25-0.14365 1.25 0.625 0.5625 1.0499 1.25 0.625 1.25-1.7438 1.25-2.9309c0-1.325 0.96523-2.1584 2.5-2.1584s2.5 0.83333 2.5 2.1584c0 1.1871 0.5625 2.506 1.25 2.9309s1.25 0.14365 1.25-0.625 0.5625-1.0499 1.25-0.625 1.25 1.5831 1.25 2.5738c0 1.368-1.803 1.801-7.5 1.801s-7.5-0.433-7.5-1.801z"/>
  <path id="path3498" fill="#fbfbfb" d="m48.75 67.574c0-3.0829-2.01-4.4037-2.9548-1.9416-1.2004 3.1282-2.6697 2.1299-5.5299-3.7572-1.5031-3.0938-2.5591-5.625-2.3468-5.625 0.21234 0 3.0175 0.89663 6.2338 1.9925 5.3512 1.8233 6.3441 1.8233 11.695 0 3.2162-1.0959 6.0214-1.9925 6.2338-1.9925 0.21234 0-0.8437 2.5312-2.3468 5.625-2.8602 5.8871-4.3295 6.8854-5.5299 3.7572-0.944-2.462-2.954-1.141-2.954 1.942 0 1.334-0.562 2.426-1.25 2.426s-1.25-1.092-1.25-2.426zm-28.722-15.787l-6.614-6.9934 6.632-6.7154 6.632-6.7154 5.0987 3.1018c2.8043 1.706 7.7705 4.5824 11.036 6.392 3.2656 1.8096 5.9375 3.6464 5.9375 4.0818 0 0.43539-3.7969 2.9854-8.4375 5.6668-4.6406 2.6813-9.615 5.6176-11.054 6.5251-2.4009 1.514-3.1618 1.0735-9.2306-5.3434zm42.16 0.402c-6.016-3.555-10.938-6.819-10.938-7.253 0-0.43394 2.6719-2.2696 5.9375-4.0792s8.2319-4.686 11.036-6.392l5.0987-3.1018 6.6504 6.7341 6.6504 6.7341-6.7491 6.9108-6.749 6.911-10.937-6.464zm-16.563 4.494c-6.046-1.402-6.12-1.816-0.884-4.939l5.259-3.136 5.1156 3.0506c2.8136 1.6778 4.6417 3.3323 4.0625 3.6767-1.774 1.054-10.903 1.962-13.553 1.347zm-40.427-6.346c-3.9228-0.481-4.054-0.648-2.156-2.745 1.8068-1.997 1.8189-2.401 0.1143-3.816-2.927-2.429-2.2678-3.914 1.3359-3.01l3.2424 0.814-2.0041-3.876-2.0042-3.875 5.6368 2.416c3.1037 1.33 5.6367 1.841 5.6367 1.137 0-0.70364 0.61138-0.90149 1.3586-0.43967 0.85339 0.52742-0.07176 2.3155-2.4878 4.8082l-3.847 3.969 2.766 2.765 2.766 2.766-3.091-0.2c-1.699-0.11-4.9696-0.431-7.2668-0.713zm81.988-1.8019 2.8115-3.0694-3.7046-3.5492c-3.49-3.344-3.959-5.667-1.145-5.667 0.6875 0 0.9072 0.55466 0.48822 1.2326-0.41898 0.67792 1.8031 0.13315 4.938-1.2106l5.6997-2.4432-2.0041 3.8756-2.0041 3.8756 3.2424-0.8138c3.6037-0.90448 4.2629 0.58078 1.3359 3.01-1.702 1.4125-1.6812 1.8313 0.19373 3.9031 1.9763 2.1838 1.9597 2.3216-0.28096 2.3345-1.3097 0.0076-4.6312 0.36864-7.3812 0.80237l-5 0.78862 2.8115-3.0694zm-44.923-11.077-7.111-3.671 2.852-8.456 2.853-8.456h9.143 9.1433l2.853 8.4576 2.853 8.4576-7.389 3.7299c-4.0639 2.0515-7.5456 3.7029-7.7371 3.6698-0.19148-0.03306-3.5483-1.7123-7.4597-3.7316zm4.6789-5.0672c1.2882-2.0843-1.609-4.4744-3.3334-2.75-1.442 1.442-0.54 4.109 1.391 4.109 0.60635 0 1.4804-0.61151 1.9423-1.3589zm8.75 0c1.2882-2.0843-1.609-4.4744-3.3334-2.75-1.442 1.442-0.54 4.109 1.391 4.109 0.60635 0 1.4804-0.61151 1.9423-1.3589zm-24.995-2.275c-0.615-0.994-5.63-27.312-5.689-29.85-0.0045-0.19749 3.3295 1.9076 7.409 4.6779l7.4173 5.037-3.2047 9.6971c-3.461 10.473-4.635 12.538-5.933 10.438zm36.228-0.21986c-0.361-0.974-2.035-5.853-3.719-10.843l-3.063-9.0713 6.491-4.8423c3.57-2.6633 6.63-4.723 6.801-4.5771 0.17 0.14592-0.534 6.6615-1.565 14.479-1.799 13.638-3.501 18.751-4.945 14.856zm-24.06-16.458c0.3151-0.85938 1.2542-1.4057 2.0868-1.2141 0.83264 0.19161 1.8154-0.80462 2.1839-2.2138 0.52689-2.0148 1.038-2.2568 2.3924-1.1328 1.3196 1.0952 1.7429 1.0283 1.8102-0.28616 0.048-0.9441 0.527-0.5911 1.063 0.7839 0.53659 1.375 1.7158 2.5 2.6205 2.5 0.90467 0 1.8792 0.70312 2.1657 1.5625 0.38 1.137-1.576 1.562-7.187 1.562-5.639 0-7.555-0.419-7.135-1.562z"/>
  <path id="path3496" fill="#fafafa" d="m48.75 66.25c0-2.9227-2.2525-3.3495-3.298-0.625-0.39573 1.0312-1.1176 1.875-1.6043 1.875-1.1121 0-5.4019-8.8626-4.6525-9.6119 0.30382-0.30382 2.8592 0.06875 5.6786 0.82794 3.7401 1.0071 6.5122 1.0071 10.252 0 2.8194-0.75918 5.3748-1.1318 5.6786-0.82794 0.75 0.749-3.54 9.612-4.652 9.612-0.486 0-1.208-0.844-1.604-1.875-1.046-2.725-3.298-2.298-3.298 0.625 0 1.375-0.5625 2.5-1.25 2.5s-1.25-1.125-1.25-2.5zm-28.106-13.993c-3.104-3.453-5.644-6.803-5.644-7.446 0-0.6426 2.5547-3.8996 5.6772-7.2377l5.6772-6.0694 11.174 6.4354c6.147 3.54 11.175 6.717 11.175 7.061 0 0.34375-5.0434 3.5296-11.208 7.0797l-11.207 6.454-5.644-6.277zm41.564-0.205c-6.004-3.535-10.915-6.708-10.914-7.052 0.0014-0.34375 5.031-3.5209 11.177-7.0604l11.174-6.4354 5.6772 6.0694c3.123 3.338 5.678 6.616 5.678 7.285s-2.6719 4.007-5.9375 7.4179l-5.937 6.202-10.917-6.427zm-14.083 4.821c-0.6875-0.22246-2.9005-0.77166-4.9179-1.2204l-3.668-0.816 5.231-2.971 5.23-2.971 5.2304 2.9709 5.2304 2.9709-3.6679 0.82281c-6.8705 1.5413-7.4182 1.618-8.6679 1.2136zm-40.938-6.534c-4.9225-0.514-5.6502-1.376-3.217-3.809 1.1272-1.128 0.971-2.023-0.6696-3.836-2.0538-2.269-2.0069-2.339 1.1654-1.732 3.0826 0.58928 3.2052 0.44454 1.8183-2.1469-2.0469-3.8246-0.97922-4.3673 3.7651-1.9139 3.3211 1.7174 4.2198 1.7888 5.097 0.40467 0.58574-0.92421 1.0736-1.1487 1.0841-0.49878 0.0105 0.64988-1.4887 2.7555-3.3317 4.6791l-3.3508 3.4975 2.9437 3.1334c1.9039 2.0266 2.3148 3.0592 1.1633 2.9233-0.979-0.116-3.8894-0.431-6.4675-0.701zm80.314-2.216 2.9501-3.1402-3.3508-3.4975c-1.8429-1.9236-3.3422-4.0292-3.3317-4.6791 0.0105-0.64988 0.49838-0.42543 1.0841 0.49878 0.87721 1.3841 1.7759 1.3128 5.097-0.40467 4.7443-2.4534 5.812-1.9107 3.7651 1.9139-1.3869 2.5914-1.2643 2.7362 1.8183 2.1469 3.1461-0.60142 3.2046-0.52046 1.2134 1.6799-1.723 1.9038-1.8097 2.652-0.49145 4.2404 2.0477 2.4673 1.8306 2.6072-5.5424 3.574l-6.1618 0.80793 2.9501-3.1402zm-45.261-10.676-7.134-3.683 3.071-8.161c1.69-4.488 3.072-8.428 3.072-8.757 0-0.328 3.938-0.596 8.75-0.596 4.8125 0 8.75 0.26841 8.75 0.59646 0 0.32806 1.3825 4.2694 3.0722 8.7586l3.0722 8.1622-7.4116 3.7414c-4.0764 2.0577-7.5683 3.7143-7.7597 3.6812-0.19148-0.03306-3.5585-1.7174-7.4822-3.743zm4.7014-5.0558c1.2882-2.0843-1.609-4.4744-3.3334-2.75-1.442 1.442-0.54 4.109 1.391 4.109 0.60635 0 1.4804-0.61151 1.9423-1.3589zm8.75 0c1.2882-2.0843-1.609-4.4744-3.3334-2.75-1.442 1.442-0.54 4.109 1.391 4.109 0.60635 0 1.4804-0.61151 1.9423-1.3589zm-25.067-2.565c-0.974-2.54-5.341-28.576-4.792-28.576 0.25077 0 3.5061 2.0252 7.234 4.5004l6.778 4.5006-3.745 10.155c-4.1986 11.387-4.513 11.928-5.4755 9.4201zm36.875 1.134c0-0.43435-1.6625-5.2986-3.6944-10.809l-3.695-10.02 6.05-4.4404c3.327-2.4423 6.292-4.4406 6.59-4.4406 0.989 0-2.953 28.105-4.112 29.312-0.626 0.654-1.139 0.833-1.139 0.398zm-24.162-17.94c0.59914-1.5613 0.97296-1.6348 1.7685-0.34753 0.80643 1.3048 1.1278 1.2632 1.602-0.20769 1.788-5.5452 1.842-5.6396 1.943-3.4025 0.055 1.2035 0.661 2.1875 1.349 2.1875 0.6875 0 1.2944-0.98438 1.3487-2.1875 0.10092-2.2371 0.15483-2.1427 1.9426 3.4025 0.47421 1.4709 0.79558 1.5125 1.602 0.20769 0.79557-1.2873 1.1694-1.2138 1.7685 0.34753 0.64 1.67-0.404 1.98-6.662 1.98s-7.302-0.31-6.662-1.98z"/>
  <path id="path3494" fill="#f9f9f9" d="m48.75 66.458c0-3.6469-1.615-4.2797-3.2285-1.265-1.4355 2.6822-1.5724 2.5974-4.2359-2.6235l-2.7525-5.3953 3.5459 1.0422c1.9503 0.57322 5.5147 1.0422 7.9209 1.0422s5.9707-0.469 7.9209-1.0422l3.5459-1.0422-2.7525 5.3953c-2.663 5.221-2.8 5.306-4.236 2.623-1.613-3.014-3.228-2.382-3.228 1.265 0 1.261-0.562 2.292-1.25 2.292-0.6875 0-1.25-1.0312-1.25-2.2917zm-28.298-14.721c-6.5027-7.6115-6.6974-6.2966 2.4069-16.26l3.5615-3.8976 10.227 6.0841c5.6249 3.3463 10.79 6.3658 11.477 6.7101 0.83333 0.41731 0.83333 0.83462 0 1.2519-0.6875 0.34428-5.8909 3.3868-11.563 6.7612l-10.313 6.1352-5.7966-6.785zm42.673 0.616c-5.5-3.3511-10.562-6.3765-11.25-6.7231-0.83333-0.42011-0.83333-0.83882 0-1.2561 0.6875-0.34428 5.8915-3.3872 11.564-6.762l10.314-6.136 5.6231 6.428c3.0927 3.5354 5.6169 6.7189 5.6093 7.0745-0.0076 0.35556-2.6795 3.5312-5.9375 7.057l-5.9237 6.4106-10-6.0929zm-20.408 2.8074c-1.2204-0.77374-0.47831-1.7471 2.8125-3.6887l4.47-2.637 4.4704 2.6376c5.3921 3.1814 3.9222 4.7398-4.4704 4.7398-3.0938 0-6.3711-0.47299-7.2829-1.0511zm-34.287-4.829c-5.5124-0.435-5.8469-0.651-4.6007-2.98 0.9816-1.834 0.9423-2.995-0.1459-4.306-1.2152-1.464-1.0008-1.795 1.1632-1.795 3.0129 0 3.1712-0.44623 1.3591-3.8322-1.5714-2.9363-0.95946-3.0009 4.0219-0.42495 3.1845 1.6468 4.0388 1.701 4.9188 0.3125 0.58574-0.92421 1.0736-1.1487 1.0841-0.49878 0.0105 0.64988-1.4887 2.7555-3.3317 4.6791l-3.3508 3.4975 2.9437 3.1334c1.619 1.7234 2.705 3.032 2.4133 2.9081-0.29172-0.12392-3.2055-0.43612-6.4751-0.69378zm79.369-2.527 2.653-2.821-3.351-3.497c-1.8429-1.9236-3.3422-4.0292-3.3317-4.6791 0.0105-0.64988 0.49838-0.42543 1.0841 0.49878 0.88002 1.3885 1.7343 1.3343 4.9188-0.3125 4.9814-2.576 5.5934-2.5113 4.0219 0.42495-1.812 3.386-1.654 3.832 1.359 3.832 2.1641 0 2.3785 0.33086 1.1633 1.7951-1.0746 1.2948-1.1228 2.4809-0.17292 4.2557 1.216 2.2721 0.84517 2.4937-4.8397 2.8924l-6.157 0.432 2.652-2.821zm-45.611-11.011c-3.266-1.7-5.938-3.533-5.938-4.074 0-0.54083 1.1766-4.4675 2.6148-8.726l2.615-7.743h8.52 8.5205l2.6148 7.7427c1.438 4.258 2.615 8.186 2.615 8.729 0 1.2174-11.812 7.3003-14.021 7.2201-0.88223-0.03201-4.2759-1.449-7.5416-3.149zm5.312-5.543c0-1.6667-0.83333-2.5-2.5-2.5s-2.5 0.83333-2.5 2.5 0.83333 2.5 2.5 2.5 2.5-0.83333 2.5-2.5zm8.75 0c0-1.6667-0.83333-2.5-2.5-2.5s-2.5 0.83333-2.5 2.5 0.83333 2.5 2.5 2.5 2.5-0.83333 2.5-2.5zm-27.927-13.655c-2.92-17.582-3.104-17.038 4.155-12.292 3.4251 2.2397 6.2376 4.6657 6.25 5.3911 0.04668 2.7412-5.8396 18.552-7.058 18.958-0.724 0.241-2.169-4.965-3.347-12.057zm38.052 9.593c-0.584-1.547-2.08-6.05-3.324-10.007-2.525-8.0332-3.103-6.732 6.011-13.536l3.438-2.5652v2.6581c0 6.4531-3.003 26.262-3.981 26.262-0.595 0-1.559-1.266-2.144-2.812zm-23.037-14.168c0.60076-1.5655 0.97145-1.6372 1.7716-0.34259 0.74301 1.2022 1.34 0.81492 2.2468-1.4577 0.87072-2.1821 1.2583-2.4497 1.3142-0.90741 0.043 1.204 0.641 2.188 1.329 2.188 0.6875 0 1.2857-0.98438 1.3292-2.1875 0.05586-1.5423 0.44347-1.2747 1.3142 0.90741 0.90684 2.2726 1.5038 2.6599 2.2468 1.4577 0.80013-1.2946 1.1708-1.223 1.7716 0.34259 0.64 1.67-0.404 1.98-6.662 1.98s-7.302-0.31-6.662-1.98z"/>
 </g>
</svg>
