<?xml version="1.0" encoding="UTF-8" standalone="no"?>
<!-- Created with Inkscape (http://www.inkscape.org/) -->
<svg id="svg3604" xmlns:rdf="http://www.w3.org/1999/02/22-rdf-syntax-ns#" xmlns="http://www.w3.org/2000/svg" height="25" viewBox="0 0 21.25 25" width="21.25" version="1.1" xmlns:cc="http://creativecommons.org/ns#" xmlns:dc="http://purl.org/dc/elements/1.1/">
 <metadata id="metadata3610">
  <rdf:RDF>
   <cc:Work rdf:about="">
    <dc:format>image/svg+xml</dc:format>
    <dc:type rdf:resource="http://purl.org/dc/dcmitype/StillImage"/>
    <dc:title/>
   </cc:Work>
  </rdf:RDF>
 </metadata>
 <path id="path3614" fill="#f6f6f6" d="m12.65 20.85c0-1.375 0.5625-2.5 1.25-2.5s1.25 1.125 1.25 2.5-0.5625 2.5-1.25 2.5-1.25-1.125-1.25-2.5zm-6.7421-0.521c0.4178-1.088 1.3088-1.979 1.98-1.979 1.643 0 0.61417 2.841-1.2544 3.4638-0.9134 0.304-1.1928-0.267-0.7256-1.485zm2.1585-3.947c-1.011-2.634 1.9251-11.251 4.6846-13.748 3.1806-2.8784 6.6975-1.7963 7.1611 2.2034 0.28088 2.4233-0.87457 4.7372-4.208 8.4268-4.9958 5.5298-6.48 6.1357-7.6379 3.1183zm8.8026-7.7792c0.988-1.5991-1.305-4.4065-2.829-3.4642-2.007 1.2403-1.71 4.4614 0.411 4.4614 0.99068 0 2.0786-0.44873 2.4175-0.99718zm-15.247 6.4092c0.2218-1.144 1.1064-2.314 1.9658-2.6 2.2983-0.765 1.9075 3.038-0.4033 3.925-1.3709 0.526-1.8438 0.125-1.5625-1.325z"/>
</svg>
