<?xml version="1.0" encoding="utf-8"?>
<!-- Generator: Adobe Illustrator 21.0.0, SVG Export Plug-In . SVG Version: 6.00 Build 0)  -->
<svg version="1.1" id="Слой_1" xmlns="http://www.w3.org/2000/svg" xmlns:xlink="http://www.w3.org/1999/xlink" x="0px" y="0px"
	 viewBox="0 0 40 40" style="enable-background:new 0 0 40 40;" xml:space="preserve">
<style type="text/css">
	.st0{fill-rule:evenodd;clip-rule:evenodd;fill:none;}
</style>
<path class="st0" d="M26.7,10.8c1.8,1.1,1.8,4.6,0.7,6.4c-0.7,1.2-4.1,5.6-6.9,8c-0.5-0.3-1.1-0.6-1.7-0.9c-0.6-0.3-1.2-0.7-1.6-0.9
	c0.7-3.6,2.8-8.7,3.5-9.9C21.8,11.6,24.9,9.8,26.7,10.8z"/>
<path class="st0" d="M19.7,25.8C19.3,26.5,16,29,16,29s0.8-3.9,1.2-4.6C18.1,24.9,19.1,25.5,19.7,25.8z"/>
<path class="st0" d="M16.8,20.3c0,0-2.6-0.8-3.5,1.2c-0.9,2-0.6,2.9-0.6,2.9s2.5-2,3.5-1.2C16.2,21.3,16.8,20.3,16.8,20.3z"/>
<path class="st0" d="M23.5,24.2c0,0,2,1.8,0.7,3.6c-1.3,1.8-2.2,2-2.2,2s0.5-3.2-0.7-3.6C22.9,25.2,23.5,24.2,23.5,24.2z"/>
<path class="st0" d="M24.6,14.5c0.9,0.5,1.2,1.7,0.7,2.6c-0.5,0.9-1.7,1.2-2.6,0.7c-0.9-0.5-1.2-1.7-0.7-2.6
	C22.5,14.3,23.7,14,24.6,14.5z"/>
</svg>
